<svg width="320" height="160" viewBox="0 0 320 160" fill="none" xmlns="http://www.w3.org/2000/svg">
<g clip-path="url(#clip0_10693_146517)">
<path d="M152.526 43.9862C151.594 34.9707 154.067 -9.53622 144.93 -14.6103C141.026 -16.7775 108.541 -27.2969 108.541 -27.2969L89.1403 -26.4541C89.1403 -26.4541 34.3299 -17.6594 23.8239 -8.80144C19.8721 8.31395 20.0168 13.3379 21.5765 36.867C23.2521 62.103 23.2376 98.6279 23.2376 98.6279L153.422 98.9265C153.422 98.9265 153.006 48.6362 152.526 43.9862Z" fill="#6240E8"/>
<path fill-rule="evenodd" clip-rule="evenodd" d="M85.0357 -12.0002C85.3115 -12.0071 85.5406 -11.7891 85.5475 -11.5133L86.2201 15.3489L94.8637 15.1714C95.1394 15.1657 95.3676 15.3847 95.3733 15.6605C95.3789 15.9363 95.16 16.1645 94.8842 16.1701L85.7435 16.3578C85.4686 16.3634 85.2408 16.1458 85.2339 15.8709L84.5489 -11.4883C84.542 -11.7641 84.76 -11.9933 85.0357 -12.0002Z" fill="#232323"/>
<path d="M49.4738 131.794C49.4738 131.794 62.2239 156.716 63.0389 158.477C63.7898 161.761 64.7601 167.73 63.4862 173.071C62.2122 178.411 56.5877 187.596 55.4399 189.073C54.2974 190.541 53.229 191.037 51.4807 190.207C49.7324 189.376 50.1088 186.397 50.5675 185.42C51.0261 184.443 55.4157 173.964 55.4157 173.964L55.5183 166.376C55.5183 166.376 55.7263 173.732 55.1781 175.772C54.6804 177.618 47.496 191.09 46.8212 192.007C46.1465 192.924 44.6402 194.507 42.7915 193.496C40.9428 192.485 40.8977 190.208 41.7205 188.546C42.116 187.743 45.7979 180.996 47.7932 176.362C48.8627 170.856 49.2672 167.385 49.2672 167.385L47.2039 174.308C46.2777 176.678 43.7621 178.926 41.5463 180.12C37.6208 182.225 31.667 185.383 31.0627 185.523C30.1445 185.732 28.0865 184.417 28.7404 182.548C29.3943 180.679 31.2982 178.752 35.3925 176.223C35.3187 176.206 40.1493 172.399 40.1493 172.399C40.1493 172.399 35.6569 176.051 33.654 176.722C32.9016 176.976 27.6228 178.017 25.6886 177.514C24.3759 177.178 24.7608 173.932 28.1399 172.223C31.5191 170.513 35.4621 165.473 35.4621 165.473C35.4621 165.473 27.3595 151.888 32.3581 143.871L31.1893 140.836L49.4881 131.789L49.4738 131.794Z" fill="#E48A66"/>
<path d="M-11.4734 36.7904C-11.058 36.8098 -11.1574 55.3297 -11.2922 69.3485C-11.3882 79.3355 -8.18654 89.0778 -2.14366 97.0297L31.3776 141.141L51.4574 136.209L22.8825 75.4242L25.8539 36.7152" fill="#E48A66"/>
<path d="M29.4986 58.6534C29.4986 58.6534 30.7608 18.0248 30.9341 11.0214C31.0552 6.10671 31.3029 0.937826 30.331 -3.9016C29.5136 -7.97475 25.3921 -17.6733 25.0661 -18.4684C20.0622 -18.5255 15.6765 -18.482 12.6716 -18.3059C0.16526 -17.5492 -12.2425 -1.96069 -13.6686 8.18757C-16.4967 21.9257 -20.4212 57.3707 -20.4212 57.3707L29.4986 58.6534Z" fill="#6240E8"/>
<path fill-rule="evenodd" clip-rule="evenodd" d="M33.2884 7.55166C33.5639 7.56411 33.7772 7.79759 33.7648 8.07316C33.7563 8.26168 33.6687 9.53841 33.5843 10.7541C33.5419 11.3651 33.5 11.9647 33.4687 12.4116L33.4352 12.8897C34.3893 13.6993 34.9134 14.905 34.8891 16.0437C34.8624 17.2966 34.1637 18.4808 32.6774 18.9121C32.1623 19.0626 31.9838 19.2829 31.9084 19.4897C31.8169 19.7401 31.8299 20.0942 31.9418 20.5852C32.0131 20.8981 32.1085 21.2085 32.2106 21.5404C32.271 21.7365 32.3336 21.9402 32.3949 22.1564C32.5495 22.7011 32.6872 23.3029 32.6461 23.8712C32.1069 31.2658 31.4729 39.9133 30.9737 46.7119C30.7241 50.1112 30.5082 53.0483 30.3547 55.1356L30.1102 58.4595C30.1102 58.4597 30.1101 58.4604 29.612 58.4238L30.1102 58.4595C30.0916 58.7114 29.888 58.9106 29.6358 58.9227L26.5336 59.0706C26.258 59.0837 26.024 58.871 26.0109 58.5955C25.9977 58.3199 26.2105 58.0859 26.486 58.0728L29.1463 57.9459L29.3584 55.0624C29.5119 52.9751 29.7278 50.038 29.9774 46.6387C30.4766 39.8402 31.1106 31.1932 31.6497 23.7988C31.6772 23.4177 31.5848 22.961 31.4339 22.4291C31.3858 22.2594 31.3299 22.077 31.2724 21.8893C31.1622 21.5299 31.0463 21.1514 30.9678 20.8072C30.8468 20.2764 30.7749 19.6816 30.97 19.1471C31.181 18.569 31.6604 18.1684 32.3978 17.9531C33.4167 17.6575 33.8718 16.8914 33.8904 16.0224C33.9095 15.1241 33.4543 14.1312 32.6227 13.5201C32.4846 13.4187 32.4082 13.2535 32.4202 13.0826L32.4722 12.3418C32.5035 11.895 32.5454 11.2956 32.5878 10.6849C32.673 9.45743 32.7591 8.20067 32.7669 8.0281C32.7793 7.75253 33.0128 7.53922 33.2884 7.55166Z" fill="#232323"/>
<path d="M-10.9492 93.49L280.254 93.49L361.329 177.111H-10.9492V93.49Z" fill="#FFD3A6"/>
<path d="M158.419 78.9095L153.191 49.509L189.187 36.2577L194.886 74.0403L225.385 110.976L210.467 127.431L169.15 96.3701C163.493 92.1172 159.658 85.8778 158.419 78.9095Z" fill="#E48A66"/>
<path d="M208.212 127.63C208.126 126.429 207.077 125.042 206.577 124.506C205.862 120.432 209.185 103.85 221.512 108.047C224.496 109.063 232.368 107.729 237.828 109.38C240.367 110.205 244.174 112.143 247.096 114.84C251.158 118.237 254.27 120.363 255.349 122.204C258.191 127.052 260.047 128.235 258.514 129.238C255.222 131.409 251.258 128.384 248.471 125.919C245.471 123.211 241.408 122.605 240.051 121.569C242.485 123.773 248.081 127.926 251.319 132.482C253.126 130.51 256.026 129.574 257.284 130.387C258.412 131.116 257.727 134.947 257.956 136.416C259.689 137.734 261.081 138.935 261.906 139.601C269.119 137.266 271.221 141.545 269.399 142.832C268.355 143.568 265.136 144.626 262.714 146.376C260.605 147.273 258.754 146.243 256.876 145.51C253.783 150.521 250.646 149.388 247.858 147.035C245.555 149.823 243.196 150.004 239.873 148.288C238.515 149.182 234.185 152.591 231.706 151.497C227.494 149.638 213.6 141.279 210.653 136.372C209.13 133.837 208.319 129.13 208.212 127.63Z" fill="#E48A66"/>
<path fill-rule="evenodd" clip-rule="evenodd" d="M220.462 117.34C220.661 117.149 220.977 117.156 221.168 117.355C221.223 117.412 221.316 117.526 221.448 117.687C222.96 119.537 229.531 127.579 241.461 127.019C241.736 127.006 241.97 127.219 241.983 127.495C241.996 127.77 241.783 128.004 241.507 128.017C229.003 128.604 222.105 120.086 220.684 118.33C220.57 118.189 220.491 118.092 220.447 118.046C220.256 117.847 220.263 117.531 220.462 117.34Z" fill="#29212E"/>
<path fill-rule="evenodd" clip-rule="evenodd" d="M239.809 134.779L239.844 134.779C240.429 134.779 240.919 134.918 241.28 135.252C241.634 135.58 241.789 136.027 241.861 136.477C241.933 136.925 241.932 137.443 241.919 137.975C241.916 138.115 241.912 138.256 241.908 138.399C241.895 138.816 241.882 139.25 241.889 139.707C241.897 140.329 241.931 140.928 241.964 141.514C241.972 141.649 241.98 141.783 241.987 141.917C242.025 142.624 242.054 143.317 242.016 143.973C241.939 145.3 241.586 146.528 240.46 147.517C240.253 147.699 239.938 147.678 239.756 147.471C239.573 147.264 239.594 146.948 239.801 146.766C240.653 146.017 240.95 145.09 241.019 143.915C241.053 143.321 241.028 142.677 240.99 141.971C240.983 141.842 240.975 141.711 240.967 141.579C240.934 140.991 240.898 140.366 240.89 139.72C240.883 139.239 240.897 138.775 240.91 138.353C240.914 138.214 240.918 138.08 240.921 137.951C240.934 137.416 240.931 136.982 240.875 136.635C240.82 136.288 240.722 136.097 240.601 135.985C240.49 135.882 240.289 135.783 239.879 135.778C237.248 136.169 234.745 139.188 234.803 144.307L234.81 144.941L234.192 144.8C233.143 144.56 232.056 144.502 231.108 144.635C230.151 144.768 229.391 145.087 228.931 145.547C228.736 145.742 228.419 145.742 228.224 145.547C228.029 145.351 228.029 145.035 228.224 144.84C228.897 144.168 229.898 143.795 230.97 143.645C231.864 143.521 232.845 143.545 233.809 143.706C233.949 138.642 236.554 135.234 239.775 134.783L239.809 134.779Z" fill="#29212E"/>
<path fill-rule="evenodd" clip-rule="evenodd" d="M248.434 131.282L248.469 131.282C249.111 131.282 249.636 131.471 250.011 131.886C250.368 132.28 250.527 132.813 250.603 133.369C250.68 133.93 250.679 134.586 250.658 135.285C250.65 135.573 250.638 135.865 250.626 136.164C250.608 136.613 250.59 137.08 250.58 137.577C250.565 138.378 250.615 139.175 250.669 139.967C250.672 140.016 250.675 140.065 250.679 140.115C250.729 140.849 250.779 141.583 250.771 142.278C250.756 143.764 250.477 145.196 249.27 146.258C249.062 146.44 248.747 146.419 248.565 146.212C248.383 146.005 248.403 145.689 248.61 145.507C249.498 144.727 249.758 143.653 249.773 142.267C249.78 141.613 249.732 140.917 249.681 140.171C249.678 140.126 249.675 140.08 249.672 140.034C249.618 139.245 249.565 138.408 249.581 137.558C249.591 137.057 249.611 136.563 249.629 136.101C249.641 135.804 249.652 135.52 249.66 135.256C249.68 134.561 249.678 133.977 249.613 133.504C249.548 133.026 249.428 132.731 249.27 132.556C249.134 132.406 248.918 132.287 248.503 132.281C247.04 132.493 245.9 133.099 245.113 134.256C244.306 135.443 243.828 137.276 243.859 140.02L243.873 141.256L243.004 140.377C242.632 140.001 242.264 139.879 241.959 139.946C241.689 140.004 241.423 139.834 241.364 139.564C241.305 139.295 241.476 139.029 241.745 138.97C242.143 138.883 242.524 138.938 242.869 139.085C242.946 136.724 243.428 134.958 244.287 133.694C245.271 132.246 246.705 131.524 248.4 131.286L248.434 131.282Z" fill="#29212E"/>
<path fill-rule="evenodd" clip-rule="evenodd" d="M256.018 129.29L256.051 129.29C256.755 129.29 257.331 129.468 257.757 129.872C258.173 130.267 258.375 130.813 258.477 131.401C258.579 131.989 258.591 132.682 258.577 133.432C258.57 133.795 258.556 134.179 258.542 134.577L258.541 134.627C258.526 135.045 258.511 135.48 258.502 135.932C258.479 137.075 258.531 138.101 258.579 139.056C258.608 139.628 258.636 140.176 258.646 140.708C258.67 142.066 258.575 143.318 257.914 144.269C257.756 144.496 257.445 144.552 257.219 144.395C256.992 144.237 256.936 143.926 257.093 143.699C257.554 143.036 257.671 142.082 257.647 140.726C257.638 140.259 257.612 139.738 257.585 139.177C257.535 138.189 257.48 137.076 257.503 135.912C257.512 135.451 257.528 135.009 257.542 134.592L257.544 134.545C257.558 134.144 257.571 133.768 257.578 133.413C257.592 132.671 257.577 132.059 257.493 131.571C257.408 131.083 257.263 130.78 257.069 130.596C256.889 130.425 256.6 130.294 256.084 130.289C254.359 130.527 253.012 131.15 252.088 132.378C251.147 133.63 250.583 135.589 250.619 138.627C250.622 138.903 250.401 139.129 250.125 139.133C249.849 139.136 249.623 138.915 249.62 138.639C249.583 135.496 250.16 133.279 251.29 131.778C252.431 130.26 254.076 129.552 255.984 129.295L256.018 129.29Z" fill="#29212E"/>
<path fill-rule="evenodd" clip-rule="evenodd" d="M262.081 139.911C262.119 140.184 261.928 140.436 261.654 140.474C261.505 140.494 261.261 140.54 261.03 140.609C260.915 140.642 260.813 140.679 260.732 140.717C260.692 140.735 260.661 140.752 260.639 140.766C260.618 140.779 260.609 140.787 260.609 140.787C260.609 140.787 260.61 140.787 260.61 140.787C260.415 140.982 260.098 140.982 259.903 140.787C259.708 140.592 259.708 140.276 259.903 140.081C260.026 139.957 260.181 139.871 260.313 139.81C260.452 139.745 260.604 139.693 260.747 139.65C261.034 139.566 261.329 139.51 261.518 139.484C261.791 139.447 262.043 139.638 262.081 139.911Z" fill="#29212E"/>
<path d="M257.517 136.044C257.437 133.29 258.328 129.643 255.803 130.35C255.086 130.619 253.831 131.581 254.879 136.126C255.68 137.044 256.862 136.451 257.517 136.044Z" fill="#FCD4D4"/>
<path d="M249.591 137.371C249.512 135.156 250.3 131.635 248.128 132.374C247.446 132.719 246.219 133.547 247.399 137.486C248.348 137.714 248.913 137.717 249.591 137.371Z" fill="#FCD4D4"/>
<path d="M240.891 139.35C240.857 137.674 241.322 135.348 239.748 135.831C239.096 136.136 239.004 137.171 239.145 139.465C239.872 139.626 240.366 139.621 240.891 139.35Z" fill="#FCD4D4"/>
<path d="M187.752 25.1096C184.624 24.5359 159.894 28.7981 148.893 32.7293C150.836 41.867 151.674 66.5174 155.679 79.7757C170.093 78.7018 188.851 74.6465 196.716 69.9633C195.771 57.2053 190.257 36.1714 187.752 25.1096Z" fill="#4D3F4F"/>
<path d="M140.646 1.64494C139.441 8.78523 144.83 33.5475 144.83 33.5475C185.464 25.2432 189.49 26.6665 190.588 21.7459C191.692 17.5502 187.953 16.3824 185.29 0.970037C181.104 -23.2653 167.25 -17.0125 152.711 -20.5146C146.037 -14.7425 142.984 -12.2137 140.646 1.64494Z" fill="#6240E8"/>
<path fill-rule="evenodd" clip-rule="evenodd" d="M150.763 -18.0424C151.01 -17.9209 151.113 -17.6217 150.991 -17.374C150.68 -16.7384 150.375 -16.1321 150.08 -15.5434C148.969 -13.3296 147.982 -11.364 147.202 -9.01776C146.231 -6.09418 145.58 -2.57293 145.47 2.71034C145.673 3.01081 145.85 3.39873 145.989 3.80288C146.155 4.28739 146.28 4.8343 146.331 5.35753C146.38 5.87057 146.362 6.40983 146.199 6.85103C146.026 7.31833 145.663 7.72233 145.056 7.76871L145.055 7.76876C144.576 7.80463 144.367 7.9917 144.252 8.20423C144.115 8.45677 144.071 8.82795 144.109 9.27152C144.146 9.70389 144.255 10.1418 144.358 10.479C144.41 10.6459 144.459 10.7841 144.494 10.8797C144.512 10.9274 144.526 10.9643 144.536 10.9886L144.545 11.0101C144.999 11.9331 145.077 12.8206 145.004 13.8483C144.964 14.4175 144.873 15.0707 144.769 15.813C144.693 16.3609 144.609 16.9573 144.535 17.6044C144.185 20.6415 143.96 25.2285 145.217 32.9824L148.009 32.1039C148.273 32.0211 148.553 32.1673 148.636 32.4305C148.719 32.6936 148.572 32.974 148.309 33.0568L144.968 34.108C144.83 34.1514 144.68 34.133 144.557 34.0575C144.434 33.982 144.349 33.8569 144.325 33.7144C142.949 25.5245 143.173 20.6945 143.542 17.49C143.625 16.7751 143.711 16.162 143.788 15.6167C143.887 14.9161 143.969 14.3274 144.008 13.7782C144.074 12.8462 143.996 12.1512 143.642 11.4381C143.638 11.4289 143.633 11.4196 143.629 11.4101L144.089 11.216C143.629 11.4101 143.629 11.41 143.629 11.4098L143.629 11.4094L143.629 11.4084L143.627 11.4053L143.623 11.395L143.608 11.3588C143.596 11.328 143.579 11.284 143.558 11.2286C143.517 11.1181 143.462 10.9613 143.404 10.773C143.289 10.3999 143.159 9.88684 143.113 9.35645C143.069 8.83726 143.1 8.2339 143.373 7.72903C143.668 7.18416 144.202 6.83096 144.98 6.77261L145.017 7.27068L144.979 6.77266C144.98 6.77264 144.98 6.77262 144.98 6.77261C145.093 6.76383 145.184 6.71545 145.262 6.50452C145.35 6.26707 145.379 5.90115 145.336 5.45307C145.294 5.0152 145.187 4.54506 145.044 4.12721C144.898 3.70168 144.727 3.36824 144.577 3.18046C144.504 3.08946 144.466 2.97592 144.468 2.85948C144.569 -2.5947 145.234 -6.26287 146.254 -9.33286C147.059 -11.754 148.086 -13.799 149.202 -16.0226C149.494 -16.6041 149.792 -17.1978 150.094 -17.8137C150.216 -18.0614 150.515 -18.1638 150.763 -18.0424Z" fill="#232323"/>
<path d="M102.185 29.8285C102.185 37.8743 108.613 42.1611 113.317 45.9996C114.977 47.3529 116.576 48.6286 118.175 48.6286C119.774 48.6286 121.373 47.3546 123.033 45.9979C127.739 42.1628 134.166 37.8743 134.166 29.8301C134.166 21.786 125.371 16.0763 118.175 23.8127C110.979 16.0763 102.185 21.7827 102.185 29.8285Z" fill="#FFABFD"/>
<path fill-rule="evenodd" clip-rule="evenodd" d="M175.739 27.6687C178.624 37.2213 183.365 53.5169 185.321 60.3825C185.997 62.7563 186.461 64.3831 186.603 64.8574C187.036 66.3069 187.204 67.9935 186.665 69.599C186.111 71.2533 184.862 72.6557 182.789 73.5667C180.384 74.6238 162.825 78.5088 155.675 79.7735L155.274 78.3221C162.122 77.1109 179.408 72.2156 181.744 71.189C183.224 70.5386 183.906 69.6575 184.203 68.7733C184.516 67.8403 184.453 66.7335 184.115 65.6018C183.947 65.0403 183.443 63.2728 182.72 60.7354C180.746 53.8049 175.975 37.6352 173.097 28.1052L175.739 27.6687Z" fill="#29212E"/>
<path fill-rule="evenodd" clip-rule="evenodd" d="M178.612 72.3248C179.319 72.205 179.99 72.6811 180.11 73.3883C182.653 88.3998 193.38 103.293 212.736 126.106L212.751 126.123L212.765 126.141C224.951 141.574 230.303 153.067 230.531 161.321C230.647 165.511 229.443 168.901 227.121 171.483C224.822 174.04 221.53 175.69 217.659 176.629L217.619 176.638L217.579 176.646C209.224 178.121 201.754 174.779 195.125 169.17C188.51 163.573 182.584 155.601 177.235 147.483C174.743 143.701 172.361 139.864 170.088 136.202C169.916 135.926 169.746 135.651 169.576 135.377C167.143 131.46 164.839 127.77 162.636 124.548C160.429 121.32 158.357 118.612 156.397 116.639C154.428 114.656 152.714 113.562 151.228 113.286C149.178 113.045 147.763 113.476 146.758 114.233C145.721 115.013 144.961 116.258 144.469 117.908C143.475 121.243 143.71 125.789 144.466 129.785C144.599 130.49 144.136 131.169 143.431 131.303C142.727 131.436 142.047 130.973 141.914 130.268C141.13 126.124 140.809 121.092 141.98 117.166C142.57 115.185 143.573 113.379 145.196 112.158C146.844 110.918 148.976 110.397 151.578 110.712L151.613 110.717L151.648 110.723C153.942 111.13 156.138 112.692 158.24 114.808C160.367 116.95 162.544 119.812 164.78 123.082C167.021 126.359 169.354 130.097 171.782 134.007C171.951 134.28 172.121 134.553 172.292 134.828C174.568 138.495 176.932 142.303 179.403 146.053C184.727 154.132 190.485 161.842 196.802 167.187C203.094 172.511 209.792 175.369 217.087 174.095C220.614 173.234 223.356 171.785 225.19 169.746C227.008 167.724 228.035 165.009 227.935 161.393C227.731 154.04 222.865 143.127 210.741 127.769C191.48 105.066 180.23 89.6476 177.549 73.8221C177.429 73.115 177.905 72.4446 178.612 72.3248Z" fill="#29212E"/>
<path d="M94.6826 144.268L94.8026 144.276C94.7629 144.538 94.816 144.856 94.9864 145.248C95.7152 146.924 98.9945 150.422 104.023 150.422C106.668 150.422 113.721 150.416 120.406 150.41H120.41C126.431 150.405 132.153 150.4 134.086 150.4C139.117 150.4 143.604 146.8 144.703 145.274C145.172 144.623 145.263 144.162 145.131 143.827L145.179 143.822C143.356 135.833 139.682 121.878 137.54 113.742C136.677 110.461 136.062 108.126 135.918 107.511C135.294 104.835 132.652 104.656 131.492 104.656C131.231 104.656 130.01 104.647 128.255 104.634C122.214 104.589 109.848 104.498 108.535 104.567C106.839 104.656 104.652 105.281 104.206 107.065C104.116 107.423 103.657 109.201 102.974 111.851C100.932 119.758 96.8879 135.425 94.6826 144.268Z" fill="#EEC296"/>
<path d="M95.6157 142.402L122.291 144.276L146.112 141.956C143.554 130.745 137.351 107.786 136.851 105.645C136.227 102.969 133.585 102.79 132.425 102.79C131.265 102.79 111.163 102.612 109.468 102.701C107.773 102.79 105.585 103.415 105.139 105.199C104.782 106.626 98.5599 130.596 95.6157 142.402Z" fill="white"/>
<path d="M98.252 141.05C100.143 140.671 112.391 140.347 120.62 140.347C127.981 140.323 142.549 140.621 144.302 141.027C145.475 141.298 146.876 141.686 145.637 143.408C144.538 144.934 140.051 148.534 135.02 148.534C130.939 148.534 109.985 148.556 104.957 148.556C99.928 148.556 96.6487 145.058 95.9199 143.382C95.1911 141.706 96.6084 141.379 98.252 141.05Z" fill="#4D3F4F"/>
<path d="M100.069 141.421C101.808 141.103 113.075 140.83 120.645 140.83C127.416 140.81 140.817 141.061 142.43 141.401C143.509 141.629 144.797 141.955 143.657 143.4C142.647 144.681 138.519 147.703 133.891 147.703C130.137 147.703 110.862 147.722 106.236 147.722C101.611 147.722 98.5941 144.785 97.9237 143.378C97.2533 141.971 98.5571 141.697 100.069 141.421Z" fill="#E2E1E5"/>
<path d="M106.42 110.192C106.526 109.572 107.063 109.118 107.692 109.118H134.035C134.665 109.118 135.202 109.572 135.308 110.192L139.387 134.1C139.521 134.888 138.914 135.608 138.114 135.608H103.614C102.814 135.608 102.206 134.888 102.341 134.1L106.42 110.192Z" fill="#29212E"/>
<path d="M113.368 105.736C113.73 104.609 114.777 103.845 115.96 103.845H125.767C126.95 103.845 127.998 104.609 128.359 105.736Lnan nanL128.359 105.736Cnan nan nan nan 126.804 107.868H114.924C113.816 107.868 113.03 106.79 113.368 105.736Cnan nan nan nan 113.368 105.736L-nan -nanL113.368 105.736Z" fill="white"/>
<path fill-rule="evenodd" clip-rule="evenodd" d="M125.724 104.329H115.918C115.015 104.329 114.259 105.074 113.983 105.933C113.778 106.571 114.254 107.223 114.924 107.223H126.804C127.474 107.223 127.949 106.571 127.745 105.933C127.469 105.074 126.627 104.329 125.724 104.329ZM115.96 103.845C114.777 103.845 113.73 104.609 113.368 105.736C113.03 106.79 113.816 107.868 114.924 107.868H126.804C127.911 107.868 128.698 106.79 128.359 105.736C127.998 104.609 126.95 103.845 125.767 103.845H115.96Z" fill="#E2E1E5"/>
<path d="M141.378 129.081L144.243 128.918C144.811 128.886 145.334 129.229 145.529 129.764L145.9 130.779C146.21 131.63 145.644 132.547 144.744 132.65L142.331 132.925L141.378 129.081Z" fill="white"/>
<path d="M120.571 136.644L120.549 137.211H120.443L120.453 136.974H120.16L120.145 137.211H120.039L120.084 136.644H120.185L120.17 136.887H120.462L120.472 136.644H120.574H120.571ZM119.843 136.728L119.828 136.887H119.601L119.591 136.974H119.819L119.806 137.122H119.536L119.526 137.211H119.903L119.95 136.644H119.578L119.568 136.728H119.838H119.843ZM118.699 136.728L118.617 137.211H118.724L118.816 136.644H118.456L118.442 136.728H118.702H118.699ZM117.815 136.644L117.758 136.887H117.466L117.528 136.644H117.426L117.28 137.211H117.387L117.446 136.974H117.738L117.684 137.211H117.79L117.917 136.644H117.815ZM118.3 136.644H118.199L118.102 137.122H117.914L117.894 137.211H118.38L118.397 137.122H118.209L118.3 136.644ZM119.333 136.766L119.4 136.644H119.509L119.185 137.211H119.085L118.915 136.644H119.024L119.061 136.766H119.333ZM119.085 136.85L119.155 137.08L119.286 136.85H119.088H119.085ZM124.262 137.67H124.574L124.873 138.99H125.378L125.46 139.309H124.088L124.031 138.99H124.531L124.259 137.67H124.262ZM122.444 139.309H122.773L122.612 137.67H122.315L122.444 139.309ZM117.439 137.912C117.639 137.912 117.758 138.096 117.659 138.304C117.605 138.415 117.488 138.507 117.367 138.531C117.226 138.561 117.112 138.507 117.062 138.413L116.777 138.593C116.871 138.779 117.089 138.888 117.372 138.826C117.617 138.774 117.842 138.586 117.939 138.361C118.107 137.969 117.879 137.64 117.505 137.64C117.315 137.64 117.122 137.727 116.975 137.86L117.161 138.029C117.238 137.957 117.34 137.91 117.441 137.91L117.439 137.912ZM119.44 139.309L119.544 138.247C119.573 137.947 119.814 137.687 120.113 137.647C120.505 137.598 120.827 137.907 120.772 138.294C120.735 138.561 120.512 138.791 120.235 138.839C120.069 138.866 119.915 138.831 119.796 138.752L119.752 139.309H119.437H119.44ZM119.858 138.143C119.781 138.378 119.98 138.588 120.227 138.531C120.344 138.504 120.44 138.41 120.472 138.299C120.539 138.066 120.341 137.868 120.103 137.922C119.992 137.947 119.893 138.036 119.858 138.143ZM121.468 138.836C121.896 138.91 122.241 138.564 122.174 138.162C122.142 137.969 122.003 137.801 121.825 137.712C121.607 137.603 121.396 137.63 121.238 137.741V137.655H120.953L120.948 138.195C120.945 138.494 121.156 138.779 121.468 138.834V138.836ZM121.478 137.922C121.711 137.868 121.926 138.066 121.882 138.299C121.859 138.41 121.77 138.504 121.656 138.531C121.413 138.591 121.196 138.378 121.252 138.143C121.277 138.034 121.369 137.947 121.478 137.922ZM123.761 138.108C123.694 137.984 123.558 137.9 123.417 137.9C123.311 137.9 123.221 137.949 123.172 138.026L122.934 137.865C123.038 137.714 123.226 137.625 123.449 137.647C123.712 137.675 123.967 137.87 124.056 138.123C124.207 138.551 123.88 138.935 123.407 138.831C123.192 138.784 122.998 138.623 122.907 138.425C122.855 138.313 122.84 138.205 122.847 138.108H123.764H123.761ZM123.798 138.338H123.162C123.226 138.467 123.365 138.559 123.514 138.559C123.662 138.559 123.771 138.465 123.798 138.338Z" fill="#BBB8C0"/>
<path d="M118.937 137.645C118.967 137.68 118.982 137.724 118.974 137.776C118.967 137.833 118.935 137.883 118.887 137.92C119.019 137.955 119.105 138.076 119.088 138.219C119.068 138.38 118.927 138.517 118.764 138.539C118.689 138.549 118.622 138.611 118.61 138.688C118.598 138.772 118.655 138.841 118.739 138.841H118.749C119.071 138.804 119.348 138.534 119.383 138.219C119.415 137.922 119.219 137.685 118.937 137.642V137.645Z" fill="#BBB8C0"/>
<path d="M118.58 138.839C118.548 138.799 118.533 138.747 118.543 138.688C118.553 138.626 118.587 138.569 118.637 138.532C118.501 138.494 118.417 138.368 118.441 138.219C118.469 138.061 118.61 137.935 118.766 137.912C118.838 137.902 118.899 137.846 118.909 137.776C118.919 137.702 118.865 137.642 118.786 137.642H118.776C118.476 137.675 118.201 137.915 118.144 138.217C118.085 138.527 118.275 138.792 118.575 138.839H118.58Z" fill="#BBB8C0"/>
<path d="M116.732 139.066C116.725 139.091 116.715 139.113 116.7 139.135C116.685 139.157 116.668 139.175 116.648 139.192C116.628 139.209 116.606 139.222 116.584 139.229C116.559 139.239 116.537 139.244 116.512 139.244C116.488 139.244 116.468 139.239 116.448 139.229C116.431 139.219 116.416 139.207 116.404 139.192C116.394 139.175 116.386 139.157 116.384 139.135C116.381 139.113 116.384 139.091 116.389 139.066C116.394 139.041 116.406 139.019 116.421 138.997C116.436 138.975 116.453 138.957 116.473 138.942C116.493 138.928 116.515 138.915 116.537 138.905C116.559 138.896 116.584 138.893 116.606 138.893C116.628 138.893 116.651 138.898 116.67 138.905C116.688 138.915 116.703 138.928 116.715 138.942C116.725 138.957 116.732 138.977 116.737 138.997C116.74 139.019 116.737 139.041 116.732 139.066ZM116.604 138.913C116.581 138.913 116.562 138.918 116.542 138.925C116.522 138.933 116.505 138.945 116.488 138.957C116.47 138.97 116.455 138.987 116.443 139.007C116.431 139.024 116.421 139.046 116.416 139.066C116.411 139.086 116.408 139.108 116.411 139.125C116.411 139.145 116.418 139.16 116.428 139.175C116.438 139.19 116.451 139.199 116.465 139.207C116.48 139.214 116.5 139.219 116.522 139.219C116.544 139.219 116.564 139.214 116.584 139.207C116.604 139.199 116.623 139.187 116.638 139.175C116.656 139.16 116.67 139.145 116.683 139.125C116.695 139.106 116.705 139.086 116.71 139.066C116.715 139.046 116.717 139.024 116.715 139.007C116.715 138.989 116.707 138.972 116.698 138.957C116.688 138.942 116.675 138.933 116.661 138.925C116.646 138.918 116.626 138.913 116.606 138.913H116.604ZM116.591 139.157H116.532C116.512 139.157 116.497 139.153 116.493 139.143C116.488 139.133 116.485 139.12 116.488 139.106C116.49 139.093 116.497 139.081 116.507 139.071C116.517 139.061 116.527 139.054 116.542 139.049L116.52 138.972H116.544L116.567 139.046H116.604L116.623 138.972H116.643L116.594 139.155L116.591 139.157ZM116.554 139.066C116.554 139.066 116.532 139.069 116.525 139.076C116.517 139.083 116.51 139.093 116.507 139.103C116.5 139.125 116.512 139.138 116.539 139.138H116.574L116.594 139.066H116.557H116.554Z" fill="#BBB8C0"/>
<path fill-rule="evenodd" clip-rule="evenodd" d="M89.17 34.6093C89.17 34.0941 89.5877 33.6764 90.1029 33.6764L91.5311 33.6764C92.0463 33.6764 92.464 34.0941 92.464 34.6093C92.464 35.1246 92.0463 35.5422 91.5311 35.5422L90.1029 35.5422C89.5877 35.5422 89.17 35.1246 89.17 34.6093ZM95.3586 34.6093C95.3586 34.0941 95.7763 33.6764 96.2916 33.6764L99.1479 33.6764C99.6631 33.6764 100.081 34.0941 100.081 34.6093C100.081 35.1246 99.6631 35.5422 99.1479 35.5422L96.2916 35.5422C95.7763 35.5422 95.3586 35.1246 95.3586 34.6093ZM102.975 34.6093C102.975 34.0941 103.393 33.6764 103.908 33.6764L106.765 33.6764C107.28 33.6764 107.698 34.0941 107.698 34.6093C107.698 35.1246 107.28 35.5422 106.765 35.5422L103.908 35.5422C103.393 35.5422 102.975 35.1246 102.975 34.6093ZM110.592 34.6093C110.592 34.0941 111.01 33.6764 111.525 33.6764L114.381 33.6764C114.897 33.6764 115.314 34.0941 115.314 34.6093C115.314 35.1246 114.897 35.5422 114.381 35.5422L111.525 35.5422C111.01 35.5422 110.592 35.1246 110.592 34.6093ZM118.209 34.6093C118.209 34.0941 118.627 33.6764 119.142 33.6764L121.998 33.6764C122.514 33.6764 122.931 34.0941 122.931 34.6093C122.931 35.1246 122.514 35.5422 121.998 35.5422L119.142 35.5422C118.627 35.5422 118.209 35.1246 118.209 34.6093ZM125.826 34.6093C125.826 34.0941 126.244 33.6764 126.759 33.6764L129.615 33.6764C130.13 33.6764 130.548 34.0941 130.548 34.6093C130.548 35.1246 130.13 35.5422 129.615 35.5422L126.759 35.5422C126.244 35.5422 125.826 35.1246 125.826 34.6093ZM133.443 34.6093C133.443 34.0941 133.86 33.6764 134.376 33.6764L137.232 33.6764C137.747 33.6764 138.165 34.0941 138.165 34.6093C138.165 35.1246 137.747 35.5422 137.232 35.5422L134.376 35.5422C133.86 35.5422 133.443 35.1246 133.443 34.6093ZM141.059 34.6093C141.059 34.0941 141.477 33.6764 141.992 33.6764L144.849 33.6764C145.364 33.6764 145.782 34.0941 145.782 34.6093C145.782 35.1246 145.364 35.5422 144.849 35.5422L141.992 35.5422C141.477 35.5422 141.059 35.1246 141.059 34.6093ZM148.676 34.6093C148.676 34.0941 149.094 33.6764 149.609 33.6764L152.465 33.6764C152.981 33.6764 153.398 34.0941 153.398 34.6093C153.398 35.1246 152.981 35.5422 152.465 35.5422L149.609 35.5422C149.094 35.5422 148.676 35.1246 148.676 34.6093ZM156.293 34.6093C156.293 34.0941 156.711 33.6764 157.226 33.6764L160.082 33.6764C160.598 33.6764 161.015 34.0941 161.015 34.6093C161.015 35.1246 160.598 35.5422 160.082 35.5422L157.226 35.5422C156.711 35.5422 156.293 35.1246 156.293 34.6093ZM163.91 34.6093C163.91 34.0941 164.328 33.6764 164.843 33.6764L167.699 33.6764C168.214 33.6764 168.632 34.0941 168.632 34.6093C168.632 35.1246 168.214 35.5422 167.699 35.5422L164.843 35.5422C164.328 35.5422 163.91 35.1246 163.91 34.6093ZM171.527 34.6093C171.527 34.0941 171.944 33.6764 172.46 33.6764L175.316 33.6764C175.831 33.6764 176.249 34.0941 176.249 34.6093C176.249 35.1246 175.831 35.5422 175.316 35.5422L172.46 35.5422C171.944 35.5422 171.527 35.1246 171.527 34.6093ZM179.143 34.6093C179.143 34.0941 179.561 33.6764 180.076 33.6764L182.933 33.6764C183.448 33.6764 183.866 34.0941 183.866 34.6093C183.866 35.1246 183.448 35.5422 182.933 35.5422L180.076 35.5422C179.561 35.5422 179.143 35.1246 179.143 34.6093ZM186.76 34.6093C186.76 34.0941 187.178 33.6764 187.693 33.6764L190.55 33.6764C191.065 33.6764 191.482 34.0941 191.482 34.6093C191.482 35.1246 191.065 35.5422 190.55 35.5422L187.693 35.5422C187.178 35.5422 186.76 35.1246 186.76 34.6093ZM194.377 34.6093C194.377 34.0941 194.795 33.6764 195.31 33.6764L198.166 33.6764C198.682 33.6764 199.099 34.0941 199.099 34.6093C199.099 35.1246 198.682 35.5422 198.166 35.5422L195.31 35.5422C194.795 35.5422 194.377 35.1246 194.377 34.6093ZM201.994 34.6093C201.994 34.0941 202.412 33.6764 202.927 33.6764L205.783 33.6764C206.298 33.6764 206.716 34.0941 206.716 34.6093C206.716 35.1246 206.298 35.5422 205.783 35.5422L202.927 35.5422C202.412 35.5422 201.994 35.1246 201.994 34.6093ZM209.611 34.6093C209.611 34.0941 210.028 33.6764 210.544 33.6764L213.4 33.6764C213.915 33.6764 214.333 34.0941 214.333 34.6093C214.333 35.1246 213.915 35.5422 213.4 35.5422L210.544 35.5422C210.028 35.5422 209.611 35.1246 209.611 34.6093ZM217.227 34.6093C217.227 34.0941 217.645 33.6764 218.16 33.6764L221.017 33.6764C221.532 33.6764 221.95 34.0941 221.95 34.6093C221.95 35.1246 221.532 35.5422 221.017 35.5422L218.16 35.5422C217.645 35.5422 217.227 35.1246 217.227 34.6093ZM224.844 34.6093C224.844 34.0941 225.262 33.6764 225.777 33.6764L227.205 33.6764C227.721 33.6764 228.138 34.0941 228.138 34.6093C228.138 35.1246 227.721 35.5422 227.205 35.5422L225.777 35.5422C225.262 35.5422 224.844 35.1246 224.844 34.6093Z" fill="white"/>
</g>
<defs>
<clipPath id="clip0_10693_146517">
<rect width="320" height="160" fill="white"/>
</clipPath>
</defs>
</svg>
