<svg xmlns="http://www.w3.org/2000/svg" width="16" height="16" viewBox="0 0 16 16" fill="none"><path d="M13.3363 6.32758H10.1454L7.2319 1.24985C7.1764 1.11111 6.98217 1.00012 6.84344 1.00012H5.03987C4.73465 1.00012 4.51268 1.30534 4.59592 1.58281L5.95553 6.32758H3.12532L1.90444 4.74599C1.8212 4.635 1.71021 4.55176 1.57148 4.55176H0.461591C0.156372 4.55176 -0.0656054 4.82923 0.0176361 5.1067L0.905545 8.1034L0.0176361 11.1278C-0.0656054 11.4053 0.156372 11.655 0.461591 11.655H1.57148C1.71021 11.655 1.8212 11.5995 1.90444 11.4886L3.12532 9.87922H5.95553L4.59592 14.6517C4.51268 14.9292 4.73465 15.2067 5.03987 15.2067H6.84344C7.00992 15.2067 7.14866 15.1234 7.2319 14.9847L10.1454 9.87922H13.3363C14.3074 9.87922 16 9.10229 16 8.1034C16 7.13225 14.3074 6.32758 13.3363 6.32758Z" fill="#0F1213"/></svg>