<svg xmlns="http://www.w3.org/2000/svg" width="29" height="19" viewBox="0 0 29 19" fill="none"><path d="M24.5614 0H2.94737C1.31958 0 0 1.31958 0 2.94737V14.7368C0 16.3646 1.31958 17.6842 2.94737 17.6842H24.5614C26.1892 17.6842 27.5088 16.3646 27.5088 14.7368V2.94737C27.5088 1.31958 26.1892 0 24.5614 0Z" fill="#E2E1E5"/><path d="M3.92969 10.807H16.7016V13.7544H3.92969V10.807Z" fill="white"/><path d="M22.1053 6.38595C23.5976 6.38595 24.9563 6.94497 25.9958 7.85963H27.5088V3.92981H0V7.85963H18.2157C19.2542 6.94497 20.6129 6.38595 22.1053 6.38595Z" fill="#14161A"/><path d="M0 7.85963L0.982422 7.85925V14.7372C0.982675 15.8206 1.86382 16.702 2.94727 16.702H24.5615C25.645 16.702 26.5261 15.8206 26.5264 14.7372V7.85925L27.5088 7.85963V14.7368C27.5088 16.3646 26.1892 17.6842 24.5614 17.6842H2.94737C1.31958 17.6842 0 16.3646 0 14.7368V7.85963Z" fill="#BBB8C0"/><path d="M24.5614 0C26.1892 0 27.5088 1.31958 27.5088 2.94737V3.92981L26.5264 3.92957V2.94714C26.5263 1.86358 25.6451 0.982369 24.5615 0.9823H2.94727C1.8637 0.982355 0.982477 1.86358 0.982422 2.94714V3.92957L0 3.92981V2.94737C0 1.31958 1.31958 0 2.94737 0H24.5614Z" fill="#BBB8C0"/><path d="M24.5615 0.9823H2.94727C1.86165 0.9823 0.982422 1.86153 0.982422 2.94714V3.92957C0.982422 2.84395 1.86172 1.96488 2.94733 1.96488H24.5614C25.647 1.96488 26.5264 2.84395 26.5264 3.92957V2.94714C26.5264 1.86153 25.6471 0.9823 24.5615 0.9823Z" fill="#ECECEE"/><path d="M22.1052 18.1755C25.3608 18.1755 27.9999 15.5363 27.9999 12.2807C27.9999 9.02515 25.3608 6.38595 22.1053 6.38595C18.8497 6.38595 16.2104 9.02515 16.2104 12.2807C16.2104 15.5363 18.8496 18.1755 22.1052 18.1755Z" fill="#E2E1E5"/><path d="M16.7017 9.82458H26.5262L26.5264 14.7372L16.7017 14.7369V9.82458Z" fill="white"/><path d="M27.4995 12.2805C27.4994 9.30118 25.0843 6.88599 22.105 6.88599C19.1257 6.8861 16.7106 9.30125 16.7104 12.2805C16.7104 15.2599 19.1256 17.6749 22.105 17.675C25.0844 17.675 27.4995 15.2599 27.4995 12.2805ZM28.4995 12.2805C28.4995 15.8122 25.6367 18.675 22.105 18.675C18.5734 18.6749 15.7104 15.8122 15.7104 12.2805C15.7106 8.74896 18.5734 5.8861 22.105 5.88599C25.6366 5.88599 28.4994 8.7489 28.4995 12.2805Z" fill="#E62338"/><path d="M19.4036 13.0175C19.8105 13.0175 20.1404 12.6876 20.1404 12.2807C20.1404 11.8737 19.8105 11.5438 19.4036 11.5438C18.9966 11.5438 18.6667 11.8737 18.6667 12.2807C18.6667 12.6876 18.9966 13.0175 19.4036 13.0175Z" fill="#14161A"/><path d="M21.8596 13.0175C22.2666 13.0175 22.5965 12.6876 22.5965 12.2807C22.5965 11.8737 22.2666 11.5438 21.8596 11.5438C21.4527 11.5438 21.1228 11.8737 21.1228 12.2807C21.1228 12.6876 21.4527 13.0175 21.8596 13.0175Z" fill="#14161A"/><path d="M24.3157 13.0175C24.7226 13.0175 25.0525 12.6876 25.0525 12.2807C25.0525 11.8737 24.7226 11.5438 24.3157 11.5438C23.9088 11.5438 23.5789 11.8737 23.5789 12.2807C23.5789 12.6876 23.9088 13.0175 24.3157 13.0175Z" fill="#14161A"/></svg>