<svg xmlns="http://www.w3.org/2000/svg" width="16" height="16" viewBox="0 0 16 16" fill="none"><path d="M9.01879 16C9.70653 16 10.238 15.4688 10.2692 14.75V11.875L13.0827 13.3438C13.7079 13.6875 14.4582 13.4688 14.8021 12.875L15.8337 11.1562C15.99 10.875 16.0525 10.5312 15.9587 10.1875C15.865 9.875 15.6774 9.59375 15.3648 9.4375L12.8326 8L15.3648 6.59375C15.6774 6.4375 15.865 6.15625 15.9587 5.84375C16.0525 5.5 15.99 5.15625 15.8337 4.875L14.8021 3.15625C14.4582 2.5625 13.7079 2.34375 13.0827 2.6875L10.2692 4.15625V1.25C10.2692 0.5625 9.70653 0 9.01879 0H7.01808C6.29908 0 5.76764 0.5625 5.76764 1.25V4.15625L2.92289 2.6875C2.29767 2.34375 1.5474 2.5625 1.20353 3.15625L0.171916 4.875C0.0156103 5.15625 -0.0469118 5.5 0.0468713 5.84375C0.140654 6.15625 0.328221 6.4375 0.640831 6.59375L3.17298 8L0.640831 9.4375C0.328221 9.59375 0.140654 9.875 0.0468713 10.1875C-0.0469118 10.5312 0.0156103 10.875 0.171916 11.1562L1.20353 12.875C1.5474 13.4688 2.32893 13.6875 2.92289 13.3438L5.76764 11.875V14.75C5.76764 15.4688 6.29908 16 7.01808 16H9.01879ZM7.26817 14.5V9.3125L2.36019 11.9375L1.60992 10.625L6.45539 8L1.60992 5.40625L2.36019 4.09375L7.26817 6.71875V1.5H8.7687V6.71875L13.6454 4.09375L14.3957 5.40625L9.55023 8L14.3957 10.625L13.6454 11.9375L8.7687 9.3125V14.5H7.26817Z" fill="#0F1213"/></svg>