<svg xmlns="http://www.w3.org/2000/svg" width="16" height="16" viewBox="0 0 16 16" fill="none"><path d="M9.75 11C9.75 11.9656 8.96562 12.75 8 12.75C7.03438 12.75 6.25 11.9656 6.25 11C6.25 10.3031 6.65938 9.7 7.22188 9.41875V3.72187C7.22188 3.33437 7.58438 2.97187 7.97188 2.97187C8.41563 2.97187 8.75 3.33437 8.75 3.72187V9.41875C9.34062 9.7 9.75 10.3031 9.75 11ZM4 5C4 4.44688 4.44688 4 5 4C5.55312 4 6 4.44688 6 5C6 5.55312 5.55312 6 5 6C4.44688 6 4 5.55312 4 5ZM4.5 8C4.5 8.55313 4.05312 9 3.5 9C2.94781 9 2.5 8.55313 2.5 8C2.5 7.44688 2.94781 7 3.5 7C4.05312 7 4.5 7.44688 4.5 8ZM11.5 8C11.5 7.44688 11.9469 7 12.5 7C13.0531 7 13.5 7.44688 13.5 8C13.5 8.55313 13.0531 9 12.5 9C11.9469 9 11.5 8.55313 11.5 8ZM12 5C12 5.55312 11.5531 6 11 6C10.4469 6 10 5.55312 10 5C10 4.44688 10.4469 4 11 4C11.5531 4 12 4.44688 12 5ZM0 8C0 3.58125 3.58125 0 8 0C12.4187 0 16 3.58125 16 8C16 12.4187 12.4187 16 8 16C3.58125 16 0 12.4187 0 8ZM8 14.5C11.5906 14.5 14.5 11.5906 14.5 8C14.5 4.40938 11.5906 1.5 8 1.5C4.40938 1.5 1.5 4.40938 1.5 8C1.5 11.5906 4.40938 14.5 8 14.5Z" fill="#0F1213"/></svg>