<svg xmlns="http://www.w3.org/2000/svg" width="16" height="16" viewBox="0 0 16 16" fill="none"><g clip-path="url(#clip0_158_14498)"><path d="M14.4999 13.9998C15.3124 13.9998 15.9999 13.3436 15.9999 12.4998V3.49982C15.9999 2.68732 15.3124 1.99982 14.4999 1.99982H1.49988C0.656128 1.99982 -0.00012207 2.68732 -0.00012207 3.49982V12.4998C-0.00012207 13.3436 0.656128 13.9998 1.49988 13.9998H14.4999ZM3.49988 3.74982C4.43738 3.74982 5.24988 4.56232 5.24988 5.49982C5.24988 6.46857 4.43738 7.24982 3.49988 7.24982C2.53113 7.24982 1.74988 6.46857 1.74988 5.49982C1.74988 4.56232 2.53113 3.74982 3.49988 3.74982ZM1.99988 11.9998V10.4998L4.21863 8.28107C4.37488 8.12482 4.59363 8.12482 4.74988 8.28107L6.49988 9.99982L10.7186 5.78107C10.8749 5.62482 11.0936 5.62482 11.2499 5.78107L13.9999 8.49982V11.9998H1.99988Z" fill="#0F1213"/></g><defs><clipPath id="clip0_158_14498"><rect width="16" height="16" fill="white"/></clipPath></defs></svg>