<svg xmlns="http://www.w3.org/2000/svg" width="16" height="16" viewBox="0 0 16 16" fill="none"><path d="M13.9688 3.48972C12.875 3.52099 12 4.39671 12 5.46009C11.9688 6.2107 12.375 6.89877 13 7.2428V10.7457C13 12.5597 11.4062 13.9984 9.5 13.9984C7.625 13.9984 6.0625 12.6222 6 10.9021C8.28125 10.4329 10 8.43128 10 5.99177V1.14404C10 0.800007 9.71875 0.48725 9.375 0.424699L7.40625 0.0181146C7 -0.0757125 6.625 0.205769 6.53125 0.612353L6.4375 1.08149C6.34375 1.48807 6.625 1.89466 7.03125 1.98848L7.96875 2.17614V5.9605C7.96875 7.61811 6.65625 8.99424 5 8.99424C3.34375 9.02552 1.96875 7.68066 1.96875 5.99177V2.17614L2.9375 1.98848C3.34375 1.89466 3.625 1.51935 3.53125 1.11276L3.4375 0.612353C3.34375 0.205769 2.96875 -0.0757125 2.5625 0.0181146L0.59375 0.393423C0.25 0.48725 0 0.800007 0 1.14404V5.99177C0 8.43128 1.71875 10.4329 4 10.9021C4.0625 13.7481 6.5 16 9.5 16C12.5312 16 15 13.6543 15 10.7457V7.2428C15.5938 6.89877 16 6.24198 16 5.49136C16 4.39671 15.0625 3.48972 13.9688 3.48972ZM14 5.99177C13.7188 5.99177 13.5 5.77284 13.5 5.49136C13.5 5.24116 13.7188 4.99095 14 4.99095C14.25 4.99095 14.5 5.24116 14.5 5.49136C14.5 5.77284 14.25 5.99177 14 5.99177Z" fill="#0F1213"/></svg>